<?xml version="1.0" encoding="UTF-8"?>
<svg version="1.1" xmlns="http://www.w3.org/2000/svg" width="700" height="420" viewBox="148 287 700 420">
    <path d="M0 0 C1.10794922 1.05767578 1.10794922 1.05767578 2.23828125 2.13671875 C2.23828125 2.79671875 2.23828125 3.45671875 2.23828125 4.13671875 C2.8521167 4.18642822 3.46595215 4.2361377 4.09838867 4.28735352 C10.04358897 4.81792164 15.7361829 5.7477093 21.55078125 7.07421875 C22.46996338 7.27877686 23.38914551 7.48333496 24.33618164 7.6940918 C26.56156853 8.18983176 28.78636567 8.68822259 31.01074219 9.18847656 C36.25352238 10.36663302 41.49997958 11.52820359 46.74609375 12.69140625 C57.9113557 15.16779792 69.07513843 17.65079359 80.23828125 20.13671875 C77.45507886 22.91992114 74.11748474 23.83022599 70.48828125 25.15625 C69.6947374 25.45104248 68.90119354 25.74583496 68.08360291 26.04956055 C66.36684132 26.68689812 64.64923032 27.32195124 62.93087769 27.95498657 C60.22492585 28.95415019 57.52323964 29.96410836 54.82250977 30.97729492 C46.79234206 33.9857818 38.75743681 36.97160282 30.66854858 39.81904602 C27.56230012 40.9164446 24.46511226 42.03807277 21.36889648 43.16342163 C19.92232946 43.68172919 18.47147099 44.18823235 17.01635742 44.68203735 C7.66066767 47.86118295 1.91072026 51.12725638 -2.76171875 60.13671875 C-3.23689941 60.98484131 -3.71208008 61.83296387 -4.20166016 62.70678711 C-10.79854172 74.89488082 -11.65974893 90.34898156 -13.76171875 103.82421875 C-21.94398874 155.75857901 -45.35871213 204.80813922 -88.60546875 236.48730469 C-108.18076125 250.36333234 -129.47738138 260.86267097 -152.25097656 268.30517578 C-154.03782869 268.89697064 -155.81784281 269.50958628 -157.59277344 270.13623047 C-164.70370146 272.6151951 -171.72593535 274.32591096 -179.13671875 275.63671875 C-180.27343018 275.84321045 -181.4101416 276.04970215 -182.58129883 276.26245117 C-196.24236995 278.67693589 -209.99696504 280.43292404 -223.76171875 282.13671875 C-222.75753906 282.81476563 -221.75335937 283.4928125 -220.71875 284.19140625 C-211.82919481 290.22707866 -203.17733 296.45662266 -194.76171875 303.13671875 C-193.84003906 303.86375 -192.91835938 304.59078125 -191.96875 305.33984375 C-183.65405173 312.01079936 -175.71295233 319.16291115 -168.19140625 326.71875 C-165.79166726 329.10691468 -163.30716975 331.34297186 -160.76171875 333.57421875 C-157.04949065 336.88752084 -153.7923183 340.19693934 -150.76171875 344.13671875 C-155.40636072 342.39116645 -159.79289961 340.20170346 -164.2265625 337.98828125 C-165.04740326 337.57991028 -165.86824402 337.17153931 -166.71395874 336.75079346 C-169.37715904 335.42397878 -172.03841285 334.09332814 -174.69921875 332.76171875 C-175.60997162 332.3065387 -176.52072449 331.85135864 -177.45907593 331.38238525 C-188.2407221 325.98877093 -198.96506852 320.53625319 -209.49438477 314.66137695 C-219.53632712 309.08490445 -229.79238307 303.91695188 -240.0324707 298.71630859 C-241.46075049 297.9885467 -242.88873215 297.26019939 -244.31640625 296.53125 C-245.01477097 296.17520691 -245.71313568 295.81916382 -246.43266296 295.45233154 C-250.05345971 293.58958907 -253.62430849 291.66631679 -257.15429688 289.63623047 C-257.8688504 289.22547775 -258.58340393 288.81472504 -259.3196106 288.39152527 C-260.66842192 287.6096526 -262.01263707 286.8197706 -263.3510437 286.0202179 C-269.33958971 282.53709606 -274.93768641 281.55573828 -281.76171875 281.13671875 C-283.97009278 280.94969868 -286.17842759 280.76221476 -288.38671875 280.57421875 C-289.82917969 280.47947266 -289.82917969 280.47947266 -291.30078125 280.3828125 C-293.76171875 280.13671875 -293.76171875 280.13671875 -296.76171875 279.13671875 C-302.41416366 278.56583591 -308.08639486 278.34988115 -313.76171875 278.13671875 C-314.79022949 278.09595215 -315.81874023 278.05518555 -316.87841797 278.01318359 C-320.19367248 277.89740342 -323.50756533 277.82434769 -326.82421875 277.76171875 C-327.88205566 277.72361084 -328.93989258 277.68550293 -330.02978516 277.64624023 C-335.9219211 277.58318027 -339.65694376 278.0462928 -344.43530273 281.51855469 C-347.4771936 283.6343751 -350.70895271 285.33621799 -353.98046875 287.0625 C-354.64634506 287.4163678 -355.31222137 287.7702356 -355.99827576 288.13482666 C-357.38417136 288.8705086 -358.77082841 289.60475772 -360.15820312 290.33764648 C-362.23111893 291.43304872 -364.30128131 292.53351294 -366.37109375 293.63476562 C-375.76154811 298.61855361 -385.23189405 303.42557462 -394.76171875 308.13671875 C-395.68227051 308.59425537 -396.60282227 309.05179199 -397.55126953 309.52319336 C-420.1841703 320.71621649 -443.64980722 329.70480793 -467.484375 337.98168945 C-469.69203628 338.75973218 -471.89258595 339.55821927 -474.0859375 340.37573242 C-483.30623886 343.7918066 -492.60241042 346.35266786 -502.13671875 348.69921875 C-503.31077271 348.99144821 -503.31077271 348.99144821 -504.50854492 349.2895813 C-516.96641425 352.38075904 -529.42499378 354.92172581 -542.13671875 356.74609375 C-545.05029881 357.17966221 -547.95171133 357.66910385 -550.85546875 358.1640625 C-568.81626945 361.17430881 -586.5767546 361.39290052 -604.76171875 361.13671875 C-602.34241281 358.41581639 -599.7884421 356.93964308 -596.5625 355.28125 C-595.52706055 354.74580566 -594.49162109 354.21036133 -593.42480469 353.65869141 C-592.31911133 353.09456543 -591.21341797 352.53043945 -590.07421875 351.94921875 C-588.36347168 351.0682251 -588.36347168 351.0682251 -586.61816406 350.16943359 C-580.16992501 346.85578057 -573.69968109 343.58984936 -567.20654297 340.36523438 C-550.18116953 331.8849317 -533.30337093 323.15860535 -516.80029297 313.69824219 C-511.03742242 310.39965679 -505.22439846 307.24457355 -499.32421875 304.19921875 C-488.77677328 298.73974987 -478.58446768 292.68698812 -468.35546875 286.65820312 C-465.23656893 284.82866776 -462.09736456 283.04042113 -458.94921875 281.26171875 C-440.20139514 270.57796508 -421.75730878 259.40036519 -403.51611328 247.87548828 C-400.87096855 246.20568499 -398.22142483 244.54312045 -395.5703125 242.8828125 C-387.14820023 237.60017626 -378.7977911 232.23009754 -370.546875 226.68359375 C-369.96212402 226.30549561 -369.37737305 225.92739746 -368.77490234 225.5378418 C-366.6403674 224.09956997 -366.6403674 224.09956997 -364.34619141 222.08911133 C-355.69743579 215.27766789 -348.41861448 215.08973565 -337.73638916 215.27816772 C-333.05973963 215.35721013 -328.38393901 215.29944264 -323.70703125 215.26171875 C-322.77168549 215.25758469 -321.83633972 215.25345062 -320.87265015 215.24919128 C-307.41690542 215.15888378 -294.11467505 213.74598051 -280.76171875 212.13671875 C-279.56981934 211.99363281 -278.37791992 211.85054687 -277.14990234 211.703125 C-268.98963332 210.69245461 -260.87183316 209.49089307 -252.76171875 208.13671875 C-251.05314697 207.85368896 -251.05314697 207.85368896 -249.31005859 207.56494141 C-234.1322856 204.96029477 -219.60713604 201.09489041 -205.01171875 196.26171875 C-204.27211914 196.0191333 -203.53251953 195.77654785 -202.77050781 195.52661133 C-158.10096172 180.75137659 -122.74477891 153.82995507 -100.82421875 111.88671875 C-97.43679058 104.86278681 -95.02475967 97.58285339 -92.76171875 90.13671875 C-135.46347909 79.06094966 -181.23040644 101.21236548 -217.82861328 121.08789062 C-219.49795244 121.99360937 -221.17414324 122.88667866 -222.8515625 123.77734375 C-230.65532713 127.94851897 -238.22208024 132.51060193 -245.76171875 137.13671875 C-246.8290625 137.79003174 -246.8290625 137.79003174 -247.91796875 138.45654297 C-267.85599152 150.71158205 -286.87429847 164.33437316 -305.76171875 178.13671875 C-306.550625 178.71164062 -307.33953125 179.2865625 -308.15234375 179.87890625 C-317.02672497 186.35098682 -325.85852556 192.85247615 -334.39941406 199.76220703 C-337.07091557 201.90519787 -339.61024427 203.76981416 -342.76171875 205.13671875 C-339.71655818 201.40639706 -336.7135005 197.98509225 -333.046875 194.859375 C-328.83334721 191.21813233 -324.75156491 187.45585351 -320.69921875 183.63671875 C-319.97404053 182.95544922 -319.2488623 182.27417969 -318.50170898 181.57226562 C-312.67054568 176.06473916 -306.98822311 170.41976007 -301.40795898 164.65820312 C-299.89509021 163.115031 -298.33289217 161.62048632 -296.76171875 160.13671875 C-296.10171875 160.13671875 -295.44171875 160.13671875 -294.76171875 160.13671875 C-294.51188232 159.56018555 -294.2620459 158.98365234 -294.00463867 158.38964844 C-292.58813843 155.82208524 -290.97249908 154.13682107 -288.875 152.08984375 C-288.10091797 151.32671875 -287.32683594 150.56359375 -286.52929688 149.77734375 C-285.71912109 148.9884375 -284.90894531 148.19953125 -284.07421875 147.38671875 C-278.38582395 141.82349646 -272.91505014 136.20038561 -267.76171875 130.13671875 C-266.75324683 128.97209944 -265.74415321 127.80801812 -264.734375 126.64453125 C-258.93576709 119.91599482 -253.23183483 113.13716493 -247.76171875 106.13671875 C-246.6634375 104.75033203 -246.6634375 104.75033203 -245.54296875 103.3359375 C-234.7256116 89.51571011 -224.86743597 75.13902212 -215.76171875 60.13671875 C-192.07857697 21.12515453 -164.12461659 -13.22234158 -118.4921875 -25.76171875 C-115.26006479 -26.55118524 -112.02900283 -27.23571168 -108.76171875 -27.86328125 C-107.69824219 -28.06953125 -106.63476562 -28.27578125 -105.5390625 -28.48828125 C-67.57465202 -34.88228723 -29.41571346 -24.407193 0 0 Z " fill="#5576A0" transform="translate(759.76171875,329.86328125)"/>
    <path d="M0 0 C4.05782253 1.56070097 7.10270785 2.99460545 9 7 C9.58283547 11.31460145 9.49540819 14.86056116 7.75 18.875 C3.78464763 23.69007074 3.78464763 23.69007074 -0.046875 24.35546875 C-4.21567942 24.61427037 -7.10745108 24.40094804 -10.4375 21.75 C-13.5885381 18.36839813 -14.78147047 16.67539309 -15.375 12.125 C-14.80338506 7.36154216 -12.45951804 4.50984625 -9.1875 1.125 C-5.95746393 -0.53616141 -3.58570502 -0.370935 0 0 Z " fill="#F7F8F9" transform="translate(701,334)"/>
    <path d="M0 0 C0.66 1.32 1.32 2.64 2 4 C1.14277344 4.65226563 0.28554688 5.30453125 -0.59765625 5.9765625 C-6.53322277 10.50823096 -12.40109921 15.05213418 -18 20 C-18.66 19.67 -19.32 19.34 -20 19 C-19.50072998 18.53102295 -19.00145996 18.0620459 -18.48706055 17.57885742 C-16.220076 15.44889856 -13.95378111 13.3182073 -11.6875 11.1875 C-10.90181641 10.44951172 -10.11613281 9.71152344 -9.30664062 8.95117188 C-8.54931641 8.23896484 -7.79199219 7.52675781 -7.01171875 6.79296875 C-6.31522217 6.1383667 -5.61872559 5.48376465 -4.90112305 4.80932617 C-3.24152511 3.22986292 -1.61108655 1.62871814 0 0 Z " fill="#5576A0" transform="translate(437,515)"/>
    <path d="M0 0 C0 3.74016583 -0.9341591 4.45276193 -3.375 7.1875 C-4.00148438 7.90292969 -4.62796875 8.61835938 -5.2734375 9.35546875 C-7 11 -7 11 -9 11 C-9.2475 11.639375 -9.495 12.27875 -9.75 12.9375 C-11 15 -11 15 -13.078125 15.62890625 C-14.02945312 15.81259766 -14.02945312 15.81259766 -15 16 C-14.04882866 14.8274869 -13.08882991 13.66212985 -12.125 12.5 C-11.59132813 11.8503125 -11.05765625 11.200625 -10.5078125 10.53125 C-9.76144531 9.77328125 -9.76144531 9.77328125 -9 9 C-8.34 9 -7.68 9 -7 9 C-6.773125 8.443125 -6.54625 7.88625 -6.3125 7.3125 C-4.64103234 4.36753316 -2.44723648 2.31843456 0 0 Z " fill="#5576A0" transform="translate(472,481)"/>
    <path d="M0 0 C0.99 0.33 1.98 0.66 3 1 C1.02 2.98 -0.96 4.96 -3 7 C-3.66 6.67 -4.32 6.34 -5 6 C-3.35 4.02 -1.7 2.04 0 0 Z " fill="#5576A0" transform="translate(497,454)"/>
</svg>
