<?xml version="1.0" encoding="UTF-8"?>
<svg version="1.1" xmlns="http://www.w3.org/2000/svg" width="585" height="585" viewBox="218 219 585 585">
    <path d="M0 0 C2.74425351 2.48782326 5.55719738 4.88563741 8.3984375 7.26171875 C10.3828125 9.16015625 10.3828125 9.16015625 11.52270508 10.80126953 C16.01389561 17.01275305 21.32364854 18.12463676 28.5703125 19.78515625 C29.73433594 20.07382568 30.89835937 20.36249512 32.09765625 20.65991211 C34.44344617 21.24135412 36.79159281 21.81337724 39.14208984 22.37548828 C42.66966856 23.22961198 46.16921606 24.16290792 49.66992188 25.11987305 C57.59000496 27.27727432 65.56755644 29.14953424 73.5703125 30.97265625 C94.63629221 35.77333708 115.7559261 40.69872196 136.3828125 47.16015625 C132.81998917 50.23740311 128.77339078 51.74577697 124.4296875 53.390625 C123.6340892 53.69799591 122.83849091 54.00536682 122.01878357 54.322052 C120.2953999 54.98727662 118.57094494 55.64973107 116.84555054 56.3097229 C112.19797921 58.08795184 107.55847392 59.88702394 102.91796875 61.68359375 C101.96122757 62.05339859 101.00448639 62.42320343 100.01875305 62.80421448 C88.49496884 67.26498145 77.0217612 71.85303367 65.57177734 76.49975586 C58.04861688 79.54560664 50.52543055 82.5081296 42.86328125 85.1875 C41.55472666 85.65677205 40.24652794 86.12703786 38.9387207 86.59838867 C36.58146049 87.43844698 34.21194833 88.24532425 31.82885742 89.0090332 C25.89234725 91.15488762 22.84218966 93.09490421 19.86328125 98.765625 C18.97950366 100.87415765 18.15061583 103.00668212 17.3828125 105.16015625 C17.05635742 106.07522949 16.72990234 106.99030273 16.39355469 107.93310547 C15.44543176 110.84356186 14.62081094 113.76822278 13.8203125 116.72265625 C13.49861084 117.87032471 13.17690918 119.01799316 12.84545898 120.20043945 C10.51964433 128.58026383 8.40275813 137.01191713 6.296875 145.44921875 C-5.17901719 191.39279398 -5.17901719 191.39279398 -12.6171875 209.16015625 C-13.10880371 210.37421143 -13.10880371 210.37421143 -13.61035156 211.61279297 C-26.51086116 243.33882277 -48.54413189 272.19249334 -75.6171875 293.16015625 C-76.17535156 293.59473145 -76.73351562 294.02930664 -77.30859375 294.47705078 C-85.99436755 301.19420827 -94.93007173 306.98999223 -104.640625 312.11474609 C-106.53882798 313.11871165 -108.42143974 314.14802586 -110.3046875 315.1796875 C-142.04121532 332.17037134 -178.18460245 339.19005096 -213.87890625 340.3984375 C-214.91112305 340.43372559 -215.94333984 340.46901367 -217.00683594 340.50537109 C-218.9849773 340.56526676 -220.96357953 340.61194894 -222.94238281 340.64306641 C-228.42982171 340.79500514 -232.87586421 341.11844205 -237.6171875 344.16015625 C-239.73711831 346.97397715 -241.23154887 349.98633892 -242.7421875 353.16015625 C-243.14566406 353.96066406 -243.54914063 354.76117187 -243.96484375 355.5859375 C-247.01631957 361.69863826 -249.81959925 367.92815446 -252.6171875 374.16015625 C-251.91859619 373.72783691 -251.22000488 373.29551758 -250.50024414 372.85009766 C-247.8152782 371.18977134 -245.12926908 369.53114757 -242.44262695 367.87353516 C-240.74549195 366.82578168 -239.04948075 365.77620856 -237.35351562 364.7265625 C-235.09421621 363.33321935 -232.82521512 361.95548638 -230.54684448 360.59355164 C-227.94887554 359.02030331 -225.46986722 357.35673667 -223.01187134 355.57380676 C-210.94271478 347.17282147 -200.34844119 346.80094036 -185.98046875 347.0703125 C-183.72576704 347.07415619 -181.47105234 347.07311559 -179.21635437 347.06748962 C-173.31735595 347.06370268 -167.42034275 347.11658016 -161.52178955 347.18481445 C-152.10466356 347.28402126 -142.6870236 347.29454963 -133.26946068 347.30758476 C-130.02259788 347.31991516 -126.77672637 347.35573972 -123.53010559 347.39601135 C-84.04032019 347.73260881 -43.85324977 337.7137261 -11.6171875 314.16015625 C-10.61429688 313.44085937 -9.61140625 312.7215625 -8.578125 311.98046875 C-1.88393003 307.08269066 4.3698215 301.87066447 10.3828125 296.16015625 C11.094375 295.48944092 11.094375 295.48944092 11.8203125 294.80517578 C29.96402515 277.60054201 42.41378021 256.9547826 52.3828125 234.16015625 C52.88683594 233.00902344 53.39085937 231.85789062 53.91015625 230.671875 C57.43386979 222.07144347 59.57846669 213.24591047 61.3828125 204.16015625 C61.53524414 203.43521973 61.68767578 202.7102832 61.84472656 201.96337891 C66.73259779 177.95157954 66.76398847 150.07357725 61.3828125 126.16015625 C60.98486471 124.09806318 60.58866433 122.03563095 60.1953125 119.97265625 C59.793125 118.08546875 59.793125 118.08546875 59.3828125 116.16015625 C82.5569698 105.16015625 82.5569698 105.16015625 87.3828125 105.16015625 C89.79446155 113.34996951 91.74762232 121.47452005 93.0703125 129.91015625 C93.18930908 130.66466064 93.30830566 131.41916504 93.4309082 132.1965332 C97.19407468 157.31777211 96.24377886 182.30387026 91.3828125 207.16015625 C91.1338623 208.54775146 91.1338623 208.54775146 90.87988281 209.96337891 C82.61110773 255.87075992 54.79537956 301.96277901 17.3828125 330.16015625 C16.48820312 330.87042969 15.59359375 331.58070313 14.671875 332.3125 C-5.74438543 348.22599614 -28.36700899 358.55375929 -52.6171875 367.16015625 C-53.36137939 367.43569336 -54.10557129 367.71123047 -54.87231445 367.99511719 C-61.41228267 370.33087353 -68.10774186 371.55515603 -74.9296875 372.78515625 C-76.07630859 373.00171875 -77.22292969 373.21828125 -78.40429688 373.44140625 C-92.27570476 375.98489021 -105.738974 376.23843393 -119.79423523 376.08429909 C-126.42317042 376.02231243 -133.05248376 376.02303588 -139.68166351 376.011693 C-145.4694887 375.99828532 -151.25566586 375.96352109 -157.04296875 375.88256836 C-162.68555673 375.80489608 -168.32565405 375.78739454 -173.96870422 375.80838585 C-176.09586115 375.80595944 -178.22311678 375.78278455 -180.34977722 375.73676491 C-195.84200829 375.41817645 -205.68449678 378.61454338 -218.33073902 387.5838356 C-222.19816968 390.25011514 -226.25457028 392.59727327 -230.3046875 394.97265625 C-235.75793108 398.24373627 -241.21026531 401.51630486 -246.66015625 404.79296875 C-257.8113833 411.49477663 -268.97700165 418.17007947 -280.18701172 424.77319336 C-281.43442139 425.50807983 -281.43442139 425.50807983 -282.70703125 426.2578125 C-283.51253418 426.73234863 -284.31803711 427.20688477 -285.14794922 427.69580078 C-288.57621464 429.72889708 -291.98563315 431.79289208 -295.39282227 433.86108398 C-297.43262834 435.05237014 -299.49149189 436.13173082 -301.6171875 437.16015625 C-299.52949382 427.29317942 -297.24022964 417.54159794 -294.47387695 407.84204102 C-292.85710389 402.13414531 -291.45918446 396.39771531 -290.13452148 390.6159668 C-288.73733123 384.56008336 -287.15790026 378.5611146 -285.54956055 372.55834961 C-283.65711457 365.4400482 -281.95635761 358.28107998 -280.31665039 351.10058594 C-280.02649048 349.85003418 -280.02649048 349.85003418 -279.73046875 348.57421875 C-279.56329346 347.84154785 -279.39611816 347.10887695 -279.22387695 346.35400391 C-278.54406881 343.895752 -277.56442607 341.52825267 -276.6171875 339.16015625 C-307.3071875 339.16015625 -337.9971875 339.16015625 -369.6171875 339.16015625 C-369.7380966 291.84887219 -369.7380966 291.84887219 -369.76367188 271.87304688 C-369.78140467 258.13383588 -369.80213817 244.39468047 -369.84350586 230.65551758 C-369.87363225 220.64497989 -369.89281498 210.63448773 -369.89945298 200.62390596 C-369.90332635 195.33510684 -369.91227336 190.04643784 -369.93437767 184.75768089 C-370.22064043 113.36984164 -353.39505908 54.49402245 -302.13085938 2.65722656 C-289.73395435 -9.66209004 -274.86183573 -20.35078609 -259.6171875 -28.83984375 C-258.81361816 -29.29069336 -258.01004883 -29.74154297 -257.18212891 -30.20605469 C-231.582618 -44.42851927 -203.95777951 -54.25491745 -174.6171875 -56.83984375 C-173.46992188 -56.94941406 -172.32265625 -57.05898438 -171.140625 -57.171875 C-107.62169499 -62.18652737 -47.21385571 -43.14369573 0 0 Z " fill="#5576A0" transform="translate(647.6171875,324.83984375)"/>
    <path d="M0 0 C0.74026428 -0.00367584 1.48052856 -0.00735168 2.2432251 -0.01113892 C15.18219178 -0.04472283 27.75642742 1.02566807 40.25 4.625 C41.00651855 4.83793701 41.76303711 5.05087402 42.54248047 5.27026367 C48.37544817 6.97889183 53.75327491 9.2145593 59 12.3125 C48.92151029 31.70595748 35.51592036 49.04704179 21 65.3125 C20.52095215 65.84939453 20.0419043 66.38628906 19.54833984 66.93945312 C9.03594055 78.65072841 -1.91364119 90.21357304 -14 100.3125 C-14.89074219 101.09238281 -15.78148437 101.87226562 -16.69921875 102.67578125 C-31.46489841 115.54128153 -47.57091651 126.69221288 -64 137.3125 C-65.04671875 137.99441406 -66.0934375 138.67632813 -67.171875 139.37890625 C-95.93512452 157.60324027 -127.28573935 171.87845334 -160 181.3125 C-161.31280551 181.70601345 -162.62530133 182.10056143 -163.9375 182.49609375 C-173.44896194 185.3125 -173.44896194 185.3125 -178 185.3125 C-178.56059643 172.29971371 -178.98469341 159.28987524 -179.24349213 146.26739502 C-179.36783761 140.2170044 -179.53580886 134.17497159 -179.81054688 128.12939453 C-181.75652864 84.16882833 -181.75652864 84.16882833 -171.33666801 72.13345718 C-166.15711079 66.71034219 -160.2033818 62.49260439 -154 58.3125 C-151.59109132 56.42008836 -149.23353874 54.47883564 -146.88044739 52.51792908 C-143.71042149 49.93937181 -140.35964393 47.63447956 -137 45.3125 C-135.79928057 44.45470501 -134.59875604 43.59663712 -133.3984375 42.73828125 C-94.32956239 15.31375602 -47.62769714 0.11345002 0 0 Z " fill="#FDFDFD" transform="translate(486,453.6875)"/>
    <path d="M0 0 C4.82316252 4.03799653 8.31810195 8.11011661 9.0625 14.4375 C8.4621472 20.54108676 6.47925523 26.0242631 1.8125 30.1875 C-3.46704186 33.67199763 -7.98290095 34.91627358 -14.3125 34.25 C-19.76646813 31.80511774 -22.82454141 29.07158982 -26.3125 24.25 C-28.32388947 18.2158316 -28.39006502 11.48494967 -25.625 5.75 C-18.25775145 -2.21459303 -9.97531371 -5.26997705 0 0 Z " fill="#F9FAFB" transform="translate(579.3125,339.75)"/>
    <path d="M0 0 C0 3 0 3 -1.35546875 4.75390625 C-7.43407488 10.75474769 -7.43407488 10.75474769 -12 12 C-8.32167983 7.47384007 -4.58913637 3.60575001 0 0 Z " fill="#5576A0" transform="translate(351,323)"/>
    <path d="M0 0 C0.66 0.33 1.32 0.66 2 1 C-0.31 3.64 -2.62 6.28 -5 9 C-5.66 8.67 -6.32 8.34 -7 8 C-4.69 5.36 -2.38 2.72 0 0 Z " fill="#5576A0" transform="translate(508,517)"/>
</svg>
